<svg xmlns="http://www.w3.org/2000/svg" viewBox="0 0 162 201.13"><defs><style>.cls-1{fill:#fc953a;}.cls-2{fill:none;stroke:#fff;stroke-linecap:round;stroke-miterlimit:10;stroke-width:5px;}</style></defs><title>Asset 1ClosetMap-Logo-valkoinen</title><g id="Layer_2" data-name="Layer 2"><g id="Layer_7" data-name="Layer 7"><path class="cls-1" d="M162,79a81,81,0,1,0-151,42.64c4.92,9.57,10.71,16,19.39,27.43C46.59,170.5,78.19,198,82.58,200.62a2.45,2.45,0,0,0,3,0c9-5.28,40.26-35.49,61.89-72.29,1-1.68,2-3.56,2.92-5.58A80.63,80.63,0,0,0,162,79Z"/><path class="cls-2" d="M25.5,101.7c-.67-2.22,3.13-4.52,13.31-12.4,11.69-9,24-17.28,35.79-26.15,1.86-1.4,6.79-3.85,9.35-3.85,2.93,0,9.12,3.53,12.83,6.78,1.16,1,10.87,8.28,30.28,22.8,10.06,7.52,14,9.77,13.35,12-1,3.81-13.31,3.48-19.55,3.34-24.41-.55-48.84-.16-73.27,0C34.78,104.34,26.44,104.78,25.5,101.7Z"/><path class="cls-2" d="M72.11,48.32s.34-10.94,11.82-10c6.78.59,8.57,9.15,7.28,12.55a18.64,18.64,0,0,1-4.12,5.27c-2.76,2.49-7.91,4.44-7.91,4.44L67.07,68.69"/></g></g></svg>