<svg xmlns="http://www.w3.org/2000/svg" viewBox="0 0 197.89 255.45">
  <defs>
    <style type="text/css">
      .cls-1,.cls-3{fill:#fc953a;}.cls-10,.cls-2,.cls-3,.cls-4,.cls-8{isolation:isolate;}.cls-3{font-size:242px;}.cls-10,.cls-3{font-family:GoodlifeExtras, Goodlife;}.cls-4{font-size:75.04px;}.cls-10,.cls-4,.cls-8{fill:#387ba0;}.cls-4,.cls-8{font-family:GoodlifeBrush, Goodlife;}.cls-5{letter-spacing:-0.04em;}.cls-6{letter-spacing:-0.02em;}.cls-7{letter-spacing:0em;}.cls-8{font-size:69.01px;}.cls-9{letter-spacing:-0.03em;}.cls-10{font-size:97px;}
    </style>
  </defs>
  <title>Asset 3ClosetMap-Logo-valkoinen</title>
  <g id="Layer_2" data-name="Layer 2">
    <g id="Layer_4" data-name="Layer 4">
      <circle class="cls-1" cx="100.81" cy="124.14" r="81" />
      <path class="cls-1" d="M23.94,147.7c10.45,31,13.61,36.1,27.63,55.7,15.31,21.41,45.08,48.93,49.22,51.53a2.19,2.19,0,0,0,2.83,0c8.53-5.28,37.92-35.49,58.3-72.29a232.93,232.93,0,0,0,14.47-30.92" />
    </g>
    <g id="Layer_2-2" data-name="Layer 2">
      <g id="Ö" class="cls-2">
        <text class="cls-3" transform="translate(9.01 205.7)">Ö</text>
      </g>
    </g>
    <g id="Layer_6" data-name="Layer 6">
      <path class="cls-1" d="M181.78,122.16A81,81,0,1,0,31.05,165.31c6.24,16.45,10.59,22.95,21.42,38.09,15.31,21.41,45.07,48.93,49.21,51.53a2.2,2.2,0,0,0,2.83,0c8.53-5.28,37.93-35.49,58.3-72.29a231.67,231.67,0,0,0,14.47-30.92H177A80.55,80.55,0,0,0,181.78,122.16ZM137,129.7c0,.22-.33,1.75-.44,2.18-.22,1-1.53,4.7-1.64,5-.43.77-2.4,5-2.94,5.89a18.6,18.6,0,0,1-1.86,2.62l-3.27,4.26c-.44.43-1.85,2-2.18,2.18s-2.29,1.53-2.62,1.64a23.71,23.71,0,0,1-2.4,2.18c-.22,0-4.69,2.51-6.44,3.27-.43.33-1.63.87-1.63,1a14.88,14.88,0,0,0-1.86.44c-1.42.22-6.22.87-6.65.87s-2.73-.33-3.49-.43c-.55-.22-4-1.1-5-1.31L92,158.61c-.22,0-1.75-.76-2.18-.87,0,0-.66-.22-.77-.44-1.09-.65-4.47-2.4-4.69-2.5-1.2-.77-5.67-3.39-6.44-3.93a33,33,0,0,1-2.83-2,14.07,14.07,0,0,1-1.86-1.85l-2.07-2.4c-.22-.33-1.09-1.42-1.31-1.86a5,5,0,0,0-.87-1.2l-1.64-4.25a6.68,6.68,0,0,1-.33-1.2c-.32-.87-.87-3.38-1-3.82-.11-1-.65-5.13-.87-6v-1.75a44.22,44.22,0,0,0,.44-5c.1-.55.43-2.3.43-2.62l1.75-5,2.62-5.67c0-.22,1.52-2.84,2.07-3.82.11-.22,1.09-1.75,1.2-2.08l1-1.2a9.52,9.52,0,0,1,1.2-1.74l2.07-2.07c.44-.33,2.19-1.53,2.62-1.75l5-2.51a20.12,20.12,0,0,0,2.18-1c1-.22,4.26-1.2,4.69-1.2.22,0,4.26-.33,5.46-.44h2.62c.22,0,2.29.44,2.62.44h.76c.33,0,2.62.65,3.49.87a27.2,27.2,0,0,0,2.84.77,14.71,14.71,0,0,1,1.74.54,45,45,0,0,1,5.57,2.07,14.14,14.14,0,0,0,1.74.77,22,22,0,0,0,2.08,1.42c.21.1,1.2.87,1.31.87a11.89,11.89,0,0,1,1.3,1.2,29.57,29.57,0,0,1,2.4,2.94,9.89,9.89,0,0,0,1.42,1.64c.11.33.77,1.31.77,1.42l3.05,5.89c.11.22,1.53,2.29,1.64,2.62a7.48,7.48,0,0,1,.76,1.64l1.42,3.81a17.25,17.25,0,0,0,.76,2.19,5.22,5.22,0,0,1,.44,2.07c.11.65.44,3.38.44,3.82Z" />
    </g>
    <g id="Layer_3" data-name="Layer 3">
      <g id="Group_37" data-name="Group 37">
        <g id="Closet_" data-name="Closet " class="cls-2">
          <text class="cls-4" transform="translate(9.11 141.6) rotate(-6.02)">
            C
            <tspan class="cls-5" x="39.7" y="0">l</tspan>
            <tspan class="cls-6" x="61.76" y="0">o</tspan>
            <tspan class="cls-7" x="93.05" y="0">set</tspan>
          </text>
        </g>
        <g id="Map" class="cls-2">
          <text class="cls-8" transform="translate(44.16 210.33) rotate(-15.01)">
            <tspan class="cls-9">M</tspan>
            <tspan x="62.11" y="0">ap</tspan>
          </text>
        </g>
        <g id="Q" class="cls-2">
          <text class="cls-10" transform="translate(67.1 95.7)">Q</text>
        </g>
      </g>
    </g>
  </g>
</svg>